<?xml version="1.0" encoding="UTF-8" standalone="no"?>
<svg
   xmlns:dc="http://purl.org/dc/elements/1.1/"
   xmlns:cc="http://creativecommons.org/ns#"
   xmlns:rdf="http://www.w3.org/1999/02/22-rdf-syntax-ns#"
   xmlns:svg="http://www.w3.org/2000/svg"
   xmlns="http://www.w3.org/2000/svg"
   xmlns:sodipodi="http://sodipodi.sourceforge.net/DTD/sodipodi-0.dtd"
   xmlns:inkscape="http://www.inkscape.org/namespaces/inkscape"
   version="1.1"
   viewbox="0 0 1885 300"
   width="1400pt"
   height="200pt"
   id="svg3981"
   sodipodi:docname="TILogoStreamVectorElipse_Text_2_cambria2.svg"
   inkscape:version="0.92.3 (2405546, 2018-03-11)">
  <metadata
     id="metadata3987">
    <rdf:RDF>
      <cc:Work
         rdf:about="">
        <dc:format>image/svg+xml</dc:format>
        <dc:type
           rdf:resource="http://purl.org/dc/dcmitype/StillImage" />
        <dc:title></dc:title>
      </cc:Work>
    </rdf:RDF>
  </metadata>
  <defs
     id="defs3985" />
  <sodipodi:namedview
     pagecolor="#000000"
     bordercolor="#666666"
     borderopacity="1"
     objecttolerance="10"
     gridtolerance="10"
     guidetolerance="10"
     inkscape:pageopacity="0.0627451"
     inkscape:pageshadow="2"
     inkscape:window-width="1920"
     inkscape:window-height="1017"
     id="namedview3983"
     showgrid="false"
     inkscape:pagecheckerboard="true"
     showborder="true"
     inkscape:showpageshadow="true"
     inkscape:zoom="0.5"
     inkscape:cx="1083.0747"
     inkscape:cy="197.34019"
     inkscape:window-x="-8"
     inkscape:window-y="-8"
     inkscape:window-maximized="1"
     inkscape:current-layer="svg3981" />
  <path
     d="m 4,-15.33333 h 1855 v 300 H 4 Z"
     id="path3929"
     inkscape:connector-curvature="0"
     style="fill:none;fill-opacity:1;stroke-width:0.99201053" />
  <path
     d="m 213.26,16.456667 c 24.35,4.4 48.67,15.1 67.02,31.92 16.5,15.1 28.41,34.74 32,56.990003 3.78,20.02 0.39,41.24 -7.82,59.75 -7.76,18.03 -19.79,33.63 -34.35,46.68 -12.38,11.09 -26.68,20.2 -41.7,27.29 -36.26,16.61 -78.38,21.67 -117.14,11.39 -22.61,-5.79 -44.41,-17.54 -60.68,-34.4 -15.12,-15.58 -25.27,-35.68 -27.59,-57.37 -2.1,-16.35 0.6,-33.41 6.37,-48.78 6.36,-16.830003 16.43,-32.040003 29.05,-44.820003 13.87,-14.56 30.58,-25.75 48.71,-34.32 32.92,-15.249997 70.32,-20.799997 106.13,-14.33 z"
     id="path3931"
     inkscape:connector-curvature="0"
     style="fill:#293b8f" />
  <path
     d="m 237.5,34.136667 c 19.2,7.59 36.4,19.54 48.83,36.18 10.44,14.33 16.67,31.570003 17.05,49.350003 0.56,17.4 -4.15,34.66 -12.49,49.87 -14.32,26.4 -38.6,46.78 -65.54,59.49 -34.82,16.17 -74.78,21.12 -112.1,11.24 -20.21,-5.44 -40.25,-15.8 -54.85,-31 -11.12,-11.38 -19.33,-25.4 -23.14,-40.89 -4.55,-17.83 -2.91,-36.83 3.44,-54.01 8.69,-23.340003 25.65,-43.780003 45.77,-58.240003 12.01,-9.05 25.77,-15.93 39.79,-21.26 36.02,-13.23 77.23,-14.88 113.24,-0.73 z"
     id="path3933"
     inkscape:connector-curvature="0"
     style="fill:#ffffff" />
  <path
     d="m 213.01,36.586667 c 23.79,5.25 45.83,16.52 61.72,35.31 -20.58,7.59 -41.15,15.21 -61.73,22.78 -2.87,1.09 -5.94,1.95 -8.62,3.44 -1.25,3.830003 -1.74,7.920003 -2.68,11.840003 26.43,-9.84 52.9,-19.580003 79.34,-29.390003 1.99,3.18 3.71,6.41 5.26,9.82 7.07,14.520003 8.68,31.760003 5.89,47.550003 -3.96,21.14 -15.03,39.7 -30.07,54.85 -14.76,14.77 -33.06,26.06 -52.64,33.24 -20.47,7.74 -42.63,11.19 -64.48,9.94 -21.63,-1.42 -42.68,-7.2 -61.12,-18.77 14.24,-5.37 28.49,-10.75 42.71,-16.18 -1.01,5.54 -2.61,11.06 -3.19,16.66 -0.29,3.3 1.39,5.86 4.4,7.13 3.7,1.47 7.82,-0.2 9.18,-4.01 2.55,-7.67 2.84,-16.43 4.78,-24.4 4.56,-22.49 9.09,-44.99 13.63,-67.48 1.75,-7.83 2.82,-15.65 5.14,-23.34 2,-8.640003 3.53,-17.400003 5.39,-26.070003 12.94,-4.69 25.85,-9.46 38.8,-14.1 2.59,-0.96 5.44,-1.8 7.78,-3.27 2.67,-1.76 3.9,-5.35 2.64,-8.34 -1.09,-2.95 -4.01,-4.94 -7.18,-4.62 -3.49,0.5 -6.9,2.1 -10.22,3.26 -30.24,11.02 -60.71,22.11 -90.97,33.1 -2.33,0.96 -4.5,1.87 -5.72,4.24 -2.08,3.73 0.06,8.69 4.03,10.05 2.38,0.870003 4.9,-0.04 7.2,-0.78 12.57,-4.61 25.17,-9.2 37.76,-13.77 -2.41,11.86 -4.82,23.720003 -7.21,35.580003 -10.8,4.94 -21.94,9.09 -32.05,15.57 -3.31,2.25 -6.97,4.63 -8.58,8.47 -1.24,2.72 -0.66,5.99 1.44,8.12 2.57,2.72 6.84,3.58 10.42,4 7.11,0.65 14.37,0.41 21.46,-0.06 -2.24,10.7 -4.31,21.43 -6.57,32.13 -18.41,6.96 -36.82,13.94 -55.24,20.89 -16.96,-14.14 -29,-34 -30.79,-56.28 -1.89,-20.15 4.23,-40.94 15.43,-57.660003 11.77,-18.36 29.31,-33.27 48.41,-43.58 32.01,-17.31 70.57,-23.47 106.25,-15.87 z"
     id="path3935"
     inkscape:connector-curvature="0"
     style="fill:#293b8f" />
  <path
     style="fill:#293b8f"
     d="m 647.48047,56.266276 c -11.2,-0.02 -22.65031,0.550313 -33.82031,1.320313 -0.86,1.91 -1.58032,3.889844 -2.32032,5.839844 2.76,0.86 7.53008,1.101093 9.33008,3.621093 1.71,3.65 -0.45086,9.029922 -1.63086,12.669922 -14.4,39.660002 -29.22898,79.168602 -43.70898,118.808602 2.53,0.73 5.04984,1.46968 7.58984,2.17968 3.15,-2.05 6.31071,-4.07961 9.4707,-6.09961 5.82001,2.45 11.51938,4.73016 17.85938,5.41016 11.46,1.17 23.45992,0.72008 34.16992,-3.91992 12.75,-4.97 23.61992,-14.56032 30.91992,-26.07031 7.41,-11.57 12.48024,-24.7586 14.74024,-38.3086 0.75,-6.12 0.6193,-13.25109 -2.2207,-18.87109 -2.13,-4.6 -6.67868,-8.03922 -11.38868,-9.69922 -8.51,-2.8 -17.81093,-2.13953 -26.21093,0.73047 -9.23,3.33 -17.42985,8.94922 -25.58985,14.19922 7.58,-20.610003 15.19055,-41.220554 22.81055,-61.810554 z m 5.53906,58.439454 c 4.08,0.06 8.95008,0.9211 11.58008,4.3711 3.31,3.95 3.09969,9.76937 2.67969,14.60937 -1.17,9.84 -4.69883,19.52 -8.79883,28.5 -4.72,9.46 -10.38953,18.63039 -19.51953,24.40039 -6.62,4.19 -14.21086,5.05055 -21.88086,4.56055 -4.34,-0.45 -8.44985,-1.7707 -11.08985,-5.4707 -2.88,-3.7 -2.0607,-8.74922 -0.9707,-12.94922 2.49,-8.79 6.01063,-17.34969 9.14063,-25.92969 1.97,-4.89 3.31961,-10.34031 6.09961,-14.82031 4.05,-5.97 10.32039,-10.19016 16.65039,-13.41016 5.05,-2.71 10.38937,-3.94133 16.10937,-3.86133 z"
     id="path3937"
     inkscape:connector-curvature="0" />
  <path
     d="m 360.71,62.336667 c 39.13,-0.17 78.35,-0.06 117.49,-0.05 -4.41,12.08 -8.88,24.14 -13.29,36.23 -3.94,0.05 -7.87,0.05 -11.81,0.01 0.35,-5.78 0.77,-11.24 -0.08,-17.03 -0.71,-3.58 -2.68,-7.11 -6.52,-7.94 -6.61,-1.51 -13.85,-1 -20.59,-0.85 -12.19,33.350003 -24.56,66.630003 -36.81,99.960003 -1.25,3.56 -2.66,7.33 -3.1,11.09 -0.26,2.01 0.37,4.49 1.93,5.87 2.4,1.57 5.57,2.16 8.3,2.98 -0.71,1.97 -1.43,3.94 -2.13,5.92 -16.6,0.04 -33.19,0.05 -49.78,-0.01 0.75,-2 1.52,-4 2.3,-6 4.8,-1.1 9.98,-2.04 13.8,-5.41 3.89,-3.59 6.02,-9.33 7.83,-14.19 12.37,-33.45 24.7,-66.91 37.1,-100.350003 -6.36,0.07 -12.99,-0.38 -19.27,0.58 -5.45,0.79 -9.95,4.04 -13.76,7.83 -5.11,5.42 -9.2,11.33 -13.22,17.57 -3.93,0.01 -7.86,0.01 -11.79,-0.02 4.49,-12.05 8.7,-24.23 13.4,-36.19 z"
     id="path3939"
     inkscape:connector-curvature="0"
     style="fill:#293b8f" />
  <path
     d="m 1237.6,62.256667 c 15.32,0.01 30.63,-0.04 45.94,0.03 -0.76,1.94 -1.43,3.99 -2.45,5.8 -3.23,1.79 -7.29,2.11 -10.47,4.24 -2.99,1.95 -4.5,4.83 -5.94,7.99 -1.96,4.47 -3.79,9.01 -5.46,13.6 -9.25,25.070003 -18.49,50.150003 -27.75,75.220003 -2.28,6.25 -4.56,12.31 -5.1,19 2.69,2.28 5.66,3.52 9,4.54 -0.75,1.95 -1.49,3.91 -2.24,5.86 -15.21,0.02 -30.42,0.06 -45.62,-0.02 0.71,-2.01 1.44,-4.01 2.17,-6.02 4.37,-1.23 9.44,-2.05 12.67,-5.53 3.45,-3.7 5.18,-9.41 6.98,-14.06 10.33,-27.92 20.65,-55.85 30.97,-83.780003 1.41,-4.06 3.17,-8.22 3.89,-12.47 0.36,-2.02 -0.11,-4.1 -1.77,-5.41 -1.97,-1.33 -4.48,-2.01 -6.7,-2.82 0.62,-2.06 1.25,-4.11 1.88,-6.17 z"
     id="path3941"
     inkscape:connector-curvature="0"
     style="fill:#293b8f" />
  <path
     d="m 570.07,64.456667 c 7.17,-0.52 14.44,-0.06 21.62,-0.18 -2.48,6.75 -4.9,13.52 -7.38,20.27 -7.25,0 -14.5,0.04 -21.75,-0.03 2.59,-6.63 4.54,-13.6 7.51,-20.06 z"
     id="path3943"
     inkscape:connector-curvature="0"
     style="fill:#293b8f" />
  <path
     d="m 843.73,79.336667 c 5.49,-0.2 10.99,-0.05 16.47,-0.05 -2.95,8 -5.99,15.98 -8.96,23.970003 11.65,0.01 23.3,-0.03 34.95,0.03 -1.35,3.75 -2.72,7.49 -4.09,11.24 -10.03,0.05 -20.06,0.05 -30.09,-0.02 -1.61,0.03 -3.34,0.05 -4.9,0.45 -0.59,1.08 -1.03,2.23 -1.47,3.38 -5.16,14.45 -10.53,28.83 -15.71,43.28 -1.68,4.62 -3.16,9.43 -3.96,14.29 -0.51,3.11 -0.14,6.33 2.05,8.74 2.19,2.32 5.99,2.56 8.98,2.62 6.8,-0.04 12.11,-2.91 17.95,-5.95 1.07,2.14 2.14,4.28 3.21,6.42 -9.27,5.76 -19.99,12.05 -31.11,12.76 -5.44,0.21 -11.36,0.22 -16.19,-2.64 -2.85,-1.61 -5.15,-3.94 -5.98,-7.18 -1.9,-7.86 0.11,-14.98 2.83,-22.32 6.61,-17.94 13.28,-35.86 19.89,-53.8 -5.34,-0.01 -10.69,0.01 -16.04,-0.04 0.78,-1.99 1.55,-3.98 2.33,-5.97 5.21,-1.17 10.07,-2.15 14.3,-5.65 7.84,-6.220003 10.74,-15.250003 15.54,-23.560003 z"
     id="path3945"
     inkscape:connector-curvature="0"
     style="fill:#293b8f" />
  <path
     d="m 195.06,82.146667 c 3.64,0.34 6.73,3.8 6.41,7.48 -0.26,3.37 -1.1,6.67 -1.47,10.03 -0.84,7.540003 -3.49,14.610003 -4.67,22.100003 -2.54,11.66 -4.15,23.47 -6.99,35.05 -1.85,9.55 -3.58,19.09 -5.75,28.58 -1.56,6.71 -2.15,13.57 -3.71,20.27 -0.49,2.01 -1.06,3.86 -2.66,5.29 -3.17,2.9 -8.75,2.15 -10.85,-1.67 -1.54,-2.48 -0.93,-5.14 -0.5,-7.84 1.06,-5.36 2.16,-10.71 3.21,-16.07 -7.4,2.75 -14.78,5.56 -22.16,8.37 0.88,-3.98 1.67,-7.98 2.47,-11.99 7.38,-2.86 14.82,-5.53 22.08,-8.67 1.33,-6.57 2.6,-13.16 3.91,-19.73 -6.91,0.68 -13.82,1.36 -20.73,2.07 0.78,-3.56 1.51,-7.13 2.26,-10.69 6.85,-0.71 13.71,-1.36 20.56,-2.04 1.68,-8.43 3.31,-16.87 5,-25.3 -7.24,2.74 -14.5,5.43 -21.78,8.05 0.9,-3.94 1.7,-7.9 2.38,-11.89 7.2,-2.8 14.5,-5.36 21.73,-8.11 1.26,-5.810003 2.13,-11.730003 3.55,-17.510003 0.77,-3.54 4.07,-6.13 7.71,-5.78 z"
     id="path3947"
     inkscape:connector-curvature="0"
     style="fill:#ffffff" />
  <path
     d="m 523.99,101.60667 c 5.26,-0.62 10.64,0.04 15.93,0.48 -2.89,7.83 -5.85,15.63 -8.77,23.45 -4.14,0.02 -8.27,0.02 -12.41,0.02 -0.84,-2.62 -1.5,-6.01 -3.36,-8.11 -2.96,-2.34 -7.46,-1.87 -10.89,-1.01 -6.62,1.91 -12.69,6.45 -17.69,11.08 -6.22,5.81 -8.22,14 -11.18,21.67 -3.69,10.31 -7.87,20.49 -11.15,30.93 -1.15,3.57 -1.07,6.22 -0.08,9.79 2.81,0.98 5.64,1.87 8.5,2.69 -0.74,1.98 -1.49,3.96 -2.25,5.93 -14.77,0.04 -29.55,0.05 -44.32,0 0.76,-2.01 1.52,-4.01 2.29,-6.01 4.18,-1.45 9.26,-2.43 12.07,-6.13 3.68,-4.61 5.62,-10.92 7.66,-16.39 5.86,-16.13 11.91,-32.2 17.6,-48.4 0.89,-2.85 2.16,-6.46 0.17,-9.14 -2.24,-1.77 -5.68,-2.21 -8.38,-2.99 0.68,-1.99 1.36,-3.98 2.06,-5.96 11.04,-0.55 22.11,-1.36 33.17,-1.23 -2.47,5.87 -5,11.71 -7.38,17.62 4.02,-2.9 7.82,-5.99 12,-8.65 7.88,-5.17 17.01,-8.68 26.41,-9.64 z"
     id="path3949"
     inkscape:connector-curvature="0"
     style="fill:#293b8f" />
  <path
     style="fill:#293b8f"
     d="m 942.99023,101.33659 c -17.53,-0.16 -32.82109,5.18047 -48.87109,11.48047 -0.94,0.49 -2.39976,0.88047 -2.75976,1.98047 -1.89,4.11 -3.15907,8.49875 -4.78907,12.71875 4.93,0.05 9.87055,0.06 14.81055,0 4.32,-5.81 8.71961,-11.01008 15.59961,-13.83008 5.82,-2.39 12.80883,-2.83031 18.79883,-0.82031 3.78,1.05 5.86054,5.06148 5.81054,8.77148 0.02,7.59 -3.39031,15.46914 -5.82031,22.61914 -16.47,1.33 -31.9593,2.52039 -47.5293,8.65039 -7.17,3 -14.64109,7.28914 -19.62109,13.36915 -4.14,4.65999 -6.67992,10.50085 -7.66992,16.63085 -0.64,5.21 1.30109,11.01946 5.87109,13.93946 6.13,4.17 14.01961,4.16039 21.09961,3.40039 12.5,-1.81 24.46071,-8.84992 34.7207,-15.91992 -1.69,4.8 -3.70031,9.44945 -5.57031,14.18945 10.19,0.07 20.39032,0.0498 30.57031,0.01 0.75,-1.96001 1.48852,-3.90915 2.22852,-5.86915 -2.48,-0.99 -7.15937,-1.79046 -8.35937,-4.48046 -0.8,-3.44 0.92101,-7.64024 1.79101,-10.99024 3.47,-10.16 7.41938,-20.16976 11.10938,-30.25976 3.38,-9.3 7.62921,-18.92985 8.69922,-28.83985 0.57,-5.27 -1.55876,-10.64039 -6.21876,-13.40039 -4.13999,-2.28 -9.24039,-3.04961 -13.90039,-3.34961 z m -10.68945,52.38086 c -2.73,6.76 -4.75055,15.13992 -9.56055,20.66992 -8.63,9.75 -21.58953,16.03977 -34.76953,13.25977 -3.56,-0.57 -6.32101,-3.18969 -6.29101,-6.92969 0.39,-9.46 7.35109,-16.97172 15.62109,-20.76172 10.57,-4.9 23.49,-5.99828 35,-6.23828 z"
     id="path3951"
     inkscape:connector-curvature="0" />
  <path
     d="m 1065.04,101.84667 c 1.24,0.21 2.36,0.7 3.5,1.21 13.7,0.47 27.44,0.04 41.16,0.22 -0.78,2.09 -1.57,4.18 -2.36,6.27 -3.31,0.93 -7.08,1.57 -10.05,3.36 -3.62,2.21 -4.81,6.88 -5.29,10.82 -0.69,6.91 -0.06,13.99 -0.11,20.94 0.49,11.04 0.29,22.11 0.87,33.15 10.26,-12.54 20.61,-25.01 30.91,-37.53 4.37,-5.29 8.77,-10.62 12.67,-16.27 2.34,-3.47 3.65,-6.82 3.46,-11.08 -2.68,-1.54 -5.5,-2.63 -8.43,-3.59 0.74,-2.03 1.49,-4.06 2.24,-6.09 13.72,0.01 27.44,-0.04 41.15,0.03 -0.71,2.04 -1.44,4.07 -2.17,6.1 -3.95,1.01 -7.68,2.29 -10.82,5 -4.66,3.95 -8.56,8.83 -12.72,13.3 -22.11,25.88 -44.2,51.84 -66.3,77.74 -6.61,7.48 -13.09,14.76 -20.48,21.5 -6.05,5.4 -12.72,9.93 -20.39,12.67 -8.09,3.14 -17.97,1.98 -26.37,0.67 2.52,-6.99 5.05,-13.99 7.6,-20.98 3.54,-0.03 7.09,-0.04 10.63,-0.04 0.25,2.01 0.5,4.02 0.76,6.03 4.8,1.52 9.32,1.11 13.64,-1.48 9.93,-5.75 17.97,-15.94 26.03,-24.1 -1.11,-23.34 -1.75,-46.71 -2.7,-70.06 -0.26,-5.07 0.04,-10.9 -1.75,-15.69 -0.54,-2 -3.12,-2.94 -4.68,-4.05 -2,5.2 -3.93,10.42 -5.89,15.64 -4.14,0.02 -8.29,0.02 -12.44,0.02 -0.77,-2.5 -1.28,-5.57 -2.85,-7.71 -1.6,-1.81 -4.58,-2.17 -6.85,-2.1 -6.25,0.3 -11.84,3.53 -16.74,7.19 -6.01,4.26 -10.67,9.86 -13.13,16.86 -4.25,11.7 -8.56,23.39 -12.74,35.12 -1.63,5.19 -3.89,9.5 -1.99,15.01 2.83,0.97 5.67,1.85 8.54,2.67 -0.69,1.97 -1.39,3.94 -2.08,5.91 -14.85,0.09 -29.71,0.06 -44.56,0.01 0.78,-2 1.56,-4 2.35,-6 4.16,-1.45 9.25,-2.49 12.1,-6.12 2.89,-3.62 4.62,-8.46 6.25,-12.76 6.11,-16.58 12.37,-33.11 18.36,-49.72 0.96,-2.85 2.27,-6.24 1.85,-9.26 -0.8,-3.96 -6.39,-4.15 -9.49,-5.19 0.68,-1.99 1.36,-3.98 2.06,-5.96 11.12,-0.55 22.28,-1.36 33.43,-1.23 -2.52,5.89 -5.18,11.72 -7.65,17.63 7.16,-5.17 13.67,-10.34 21.88,-13.88 9.25,-4.1 19.58,-5.55 29.59,-4.18 z"
     id="path3953"
     inkscape:connector-curvature="0"
     style="fill:#293b8f" />
  <path
     d="m 1346.94,101.49667 c 6.01,-0.44 13.45,0.05 18.43,3.83 3.59,2.51 5.52,7 5.5,11.31 0.43,8.24 -3.42,17.08 -6.12,24.79 -4.65,12.98 -9.87,25.8 -14.01,38.96 -0.69,2.61 -2.18,6.41 -0.3,8.81 1.81,1.9 5.09,2.54 7.5,3.45 -0.7,1.95 -1.39,3.91 -2.08,5.86 -14.51,0.09 -29.03,0.06 -43.54,0.02 0.77,-2.01 1.55,-4.02 2.34,-6.03 3.62,-1.2 8.41,-2.16 11.16,-4.94 3.6,-3.64 5.6,-8.98 7.35,-13.69 3.91,-10.77 8.07,-21.45 11.76,-32.3 1.78,-5.1 3.52,-10.45 4.13,-15.83 0.39,-3.75 -0.88,-7.9 -4.54,-9.57 -5.6,-2.72 -12.57,-1.43 -18.1,0.86 -5.71,2.63 -11.2,6.02 -15.85,10.28 -4.33,4 -6.41,9.17 -8.37,14.59 -4.46,12.53 -9.29,24.93 -13.59,37.51 -0.81,2.75 -2.23,6.66 -0.62,9.31 1.49,2.29 5.26,2.98 7.65,3.93 -0.75,1.97 -1.51,3.94 -2.27,5.9 -14.36,-0.01 -28.71,0.05 -43.07,-0.03 0.72,-2.01 1.43,-4.03 2.16,-6.04 4.39,-1.46 9.26,-2.25 12.22,-6.17 3.87,-5 5.96,-11.88 8.19,-17.75 5.66,-15.65 11.59,-31.22 17.04,-46.95 1.19,-3.09 1.14,-6.1 0.69,-9.33 -2.91,-1.12 -5.84,-2.05 -8.86,-2.85 0.68,-1.98 1.36,-3.95 2.05,-5.92 11.04,-0.55 22.12,-1.36 33.18,-1.23 -2.36,5.56 -4.87,11.06 -7.11,16.66 11.75,-7.75 22.64,-15.55 37.08,-17.44 z"
     id="path3955"
     inkscape:connector-curvature="0"
     style="fill:#293b8f" />
  <path
     d="m 1477.98,105.56667 c -2.66,7.32 -5.38,14.63 -8.08,21.94 -4.91,0.07 -9.82,0.05 -14.73,0.03 0.06,-4.45 0.63,-9.21 -1.97,-13.11 -1.36,-2.31 -3.77,-2.97 -6.24,-3.39 -7.72,-1.13 -15.44,1.26 -21.56,5.99 -9.24,7.02 -15.4,17.43 -20.02,27.89 -3.11,7.52 -6.07,15.58 -7.08,23.69 -0.57,4.8 -0.24,9.96 2.9,13.87 2.56,3.06 6.89,4.49 10.75,4.75 5.87,0.24 11.77,-0.51 17.33,-2.45 5.99,-1.96 11.48,-6.16 16.87,-9.49 1.6,2.46 3.18,4.93 4.75,7.41 -8.32,5.97 -16.31,11.48 -26.15,14.71 -10.11,3.54 -21.65,4.41 -32.02,1.59 -6.45,-1.61 -12.36,-6.04 -14.86,-12.3 -3.07,-7.42 -2.34,-16.09 -0.58,-23.74 3.19,-13.34 9.45,-26.18 18.46,-36.57 8.1,-9.64 18.81,-17.04 30.61,-21.41 16.43,-5.520003 35.19,-4.42 51.62,0.59 z"
     id="path3957"
     inkscape:connector-curvature="0"
     style="fill:#293b8f" />
  <path
     style="fill:#293b8f"
     d="m 1536.7383,101.33269 c -3.8064,0.0125 -7.5993,0.36187 -11.2481,0.98437 -15.67,2.42 -29.7903,10.72899 -40.3203,22.45899 -10.54,12.37 -17.5008,27.86109 -20.1308,43.87109 -0.96,7.06 -0.2898,15.82953 4.4902,21.51953 4.98,6.51 13.6207,9.29984 21.4707,10.08984 13.85,1.21 27.8001,-0.78906 40.0801,-7.53906 14.23,-7.39 25.3801,-20.64062 31.9101,-35.14062 4.81,-10.63 9.0599,-23.23953 7.3399,-35.01954 -1.3,-8.52 -7.041,-15.14968 -15.041,-18.17968 -5.825,-2.15 -12.2068,-3.06582 -18.5508,-3.04492 z m -4.416,9.42578 c 3.3096,-0.0449 6.639,0.53711 9.5078,2.06836 4.25,2.35 6.35,7.13078 6.75,11.80078 1.08,9.9 -1.971,19.15984 -5.291,28.33984 -3.31,8.52 -7.58,17.3793 -13.67,24.2793 -5.55,6.85 -13.8187,12.67961 -22.7187,13.84961 -5.12,0.5 -10.2997,0.41086 -14.6797,-2.61914 -3.4,-2.44 -4.8498,-6.71094 -5.3398,-10.71094 -0.94,-7.98 1.1989,-15.98906 3.6289,-23.53906 3.77,-10.94 9.0101,-22.53086 16.9101,-31.13086 4.98,-5.64 11.7103,-9.94039 19.0703,-11.65039 1.8675,-0.40875 3.8463,-0.66055 5.8321,-0.6875 z"
     id="path3959"
     inkscape:connector-curvature="0" />
  <path
     d="m 1672.46,105.26667 c 4.84,3.51 5.49,8.49 5.94,14.06 8.34,-5.78 17.38,-11.8 26.87,-15.46 8.01,-3.02 17.85,-3.68 25.83,-0.28 5.23,2.18 8.25,7.52 8.26,13.08 -0.24,8.73 -3.24,16.08 -6.15,24.16 -4.22,11.44 -8.49,22.87 -12.68,34.33 -1.21,3.67 -2.77,7.66 -2.8,11.55 0.24,4.09 5.36,4.72 8.37,5.96 -0.72,1.94 -1.44,3.89 -2.16,5.84 -14.46,0.09 -28.92,0.06 -43.38,0.01 0.76,-2 1.52,-4.01 2.29,-6.01 4.16,-1.38 9.24,-2.27 12.09,-5.89 3.04,-3.79 4.9,-8.71 6.65,-13.21 4.55,-12.56 9.5,-24.94 13.41,-37.74 1.35,-4.65 3.45,-10.99 1.6,-15.67 -1.99,-4.68 -7.06,-5.4 -11.58,-5.35 -8.65,0.46 -17.23,5.86 -23.71,11.31 -4.81,3.87 -7.19,9.06 -9.34,14.69 -4.38,11.94 -8.79,23.87 -13.18,35.81 -1.2,3.56 -3.2,8.54 -1.87,12.24 1.56,2.26 5.35,2.96 7.77,3.96 -0.69,1.97 -1.39,3.93 -2.09,5.89 -14.43,0 -28.85,0.04 -43.28,-0.02 0.76,-2.01 1.52,-4.02 2.29,-6.03 3.15,-1.02 6.78,-1.84 9.57,-3.66 2.4,-1.54 3.98,-4.25 5.27,-6.73 3.69,-7.24 6.27,-15.31 9.18,-22.93 3.07,-8.1 5.96,-16.27 8.5,-24.56 0.96,-3.22 1.7,-6.61 1.89,-9.97 -0.01,-3.47 -0.94,-7.04 -4.34,-8.63 -5.68,-2.12 -11.96,-1.5 -17.43,0.98 -8.97,4.17 -19.06,10.68 -22.4,20.51 -5.06,13.9 -10.27,27.75 -15.24,41.68 -0.92,2.86 -2.08,6.84 -0.82,9.7 1.96,1.98 5.33,2.7 7.85,3.75 -0.75,1.97 -1.51,3.94 -2.27,5.91 -14.37,-0.01 -28.74,0.05 -43.11,-0.03 0.72,-2.01 1.46,-4.02 2.2,-6.03 3.36,-1.09 7.31,-2.08 10.18,-4.19 2.45,-1.83 4.01,-5 5.32,-7.69 3.27,-7.01 5.69,-14.46 8.42,-21.69 4.48,-12.43 9.24,-24.77 13.51,-37.27 0.87,-3.24 2.4,-6.77 -0.41,-9.51 -2.28,-1.5 -5.34,-2 -7.92,-2.8 0.7,-1.95 1.41,-3.89 2.11,-5.83 11.09,-0.54 22.21,-1.37 33.31,-1.23 -2.47,5.59 -4.99,11.15 -7.41,16.76 10.85,-6.37 19.47,-13.77 32.13,-16.66 7.26,-1.86 16.39,-1.36 22.76,2.89 z"
     id="path3961"
     inkscape:connector-curvature="0"
     style="fill:#293b8f" />
  <path
     style="fill:#293b8f"
     d="m 1809.0449,101.31511 c -7.3332,-0.0359 -14.6584,1.50406 -21.664,3.71094 -16.98,6.18 -30.6414,18.93078 -39.4414,34.55078 -4.94,9.57 -8.8804,20.09031 -10.1504,30.82031 -0.77,7.62 0.2113,15.94914 5.8613,21.61914 6.02,6.14 14.0105,7.98976 22.3105,8.50977 8.89,0.27 17.6786,-0.68001 26.0586,-3.75 9.84,-3.65001 18.1207,-9.12961 26.6407,-15.09961 -1.51,-2.47 -3.0404,-4.92891 -4.5704,-7.37891 -6.95,4.71 -14.0491,8.7793 -22.1191,11.2793 -7.6,2.02 -16.3602,2.54007 -23.9102,0.0801 -6.12,-2.19 -8.9896,-7.78101 -9.1796,-14.04101 0.09,-7.49 2.5198,-15.09859 5.0898,-22.0586 22.79,-0.01 45.5889,0.0102 68.3789,-0.01 1.94,-7.43 4.9701,-15.16156 5.3301,-22.85156 0.04,-5.69 -0.5403,-11.85016 -4.3203,-16.41016 -3.62,-4.59 -8.7499,-6.70937 -14.3399,-7.85937 -3.3062,-0.75313 -6.6413,-1.09502 -9.9746,-1.11133 z m -4.3242,9.32617 c 1.3523,0.0412 2.7096,0.19461 4.0684,0.47461 5.04,0.91 8.3118,5.47094 8.3418,10.46094 -0.05,6.2 -1.7309,12.72968 -3.3809,18.67968 -15.2,-0.01 -30.3996,0.0105 -45.5996,-0.0195 3.25,-6.46 6.5003,-12.57984 11.5703,-17.83984 6.3963,-6.7725 15.5336,-12.04434 25,-11.75586 z"
     id="path3963"
     inkscape:connector-curvature="0" />
  <path
     d="m 576.71,102.26667 c -8.81,23.88 -17.67,47.74 -26.46,71.63 -1.33,3.99 -3.36,8.52 -3.26,12.76 0.61,4.18 5.19,4.7 8.41,5.99 -0.76,1.96 -1.5,3.93 -2.25,5.89 -14.49,-0.01 -28.97,0.12 -43.45,-0.07 0.88,-1.92 1.53,-4.27 2.91,-5.89 4.34,-2.02 8.81,-2.22 11.9,-6.41 3.38,-4.88 5.52,-10.77 7.64,-16.3 5.66,-15.67 11.56,-31.27 17.1,-46.99 0.9,-2.83 2.35,-6.86 1.05,-9.69 -1.75,-2.48 -6.26,-2.9 -8.96,-3.79 0.74,-1.94 1.47,-3.91 2.32,-5.81 10.91,-0.77 22.12,-1.38 33.05,-1.32 z"
     id="path3965"
     inkscape:connector-curvature="0"
     style="fill:#293b8f" />
  <path
     d="m 709.26,103.47667 c 10.42,-0.54 20.99,-0.08 31.45,-0.2 -6.53,17.81 -13.13,35.59 -19.6,53.41 -2.35,6.68 -5,13.88 -5.41,20.99 -0.18,3.75 1.8,7.45 5.49,8.64 5.64,1.52 11.84,1.12 17.21,-1.21 4.88,-2.16 9.44,-5.1 13.67,-8.33 4.1,-3.18 7,-7.49 8.68,-12.38 5,-13.93 10.5,-27.71 15.3,-41.71 1.35,-3.75 1.42,-6.48 0.59,-10.37 -2.5,-0.98 -5.02,-1.92 -7.54,-2.87 0.66,-2.06 1.33,-4.11 2,-6.16 10.61,-0.05 21.24,-0.06 31.85,0 -9.19,25.22 -18.67,50.34 -27.66,75.62 -0.89,2.88 -2.69,7.59 -0.8,10.27 2.06,2.09 5.92,2.55 8.64,3.4 -0.72,1.97 -1.45,3.93 -2.16,5.89 -10.87,0.58 -21.79,1.2 -32.67,1.05 2.19,-5.49 4.55,-10.89 6.62,-16.42 -5.59,3.2 -10.5,7.28 -16.21,10.29 -6.79,3.72 -13.89,6.45 -21.68,7.05 -4.84,0.34 -9.48,0.3 -14,-1.69 -3.58,-1.55 -6.84,-3.8 -8.16,-7.64 -2.27,-6.66 -0.52,-14.43 1.62,-20.92 5.24,-14.15 10.48,-28.31 15.59,-42.51 1.22,-3.89 3.03,-7.97 3.27,-12.05 -0.13,-4.54 -5.45,-4.8 -8.61,-6.35 0.8,-1.94 1.51,-3.96 2.52,-5.8 z"
     id="path3967"
     inkscape:connector-curvature="0"
     style="fill:#293b8f" />
  <path
     d="m 140.32,133.23667 c -0.9,4.39 -1.79,8.79 -2.7,13.18 -7.81,0.61 -15.57,0.8 -23.39,0.15 8.22,-5.5 17.04,-9.44 26.09,-13.33 z"
     id="path3975"
     inkscape:connector-curvature="0"
     style="fill:#293b8f" />
  <path
     d="m 195.37,141.25667 c 5.55,-0.04 11.15,-0.04 16.67,0.55 3.54,0.51 7.96,1.59 10.31,4.52 2.33,2.59 2.09,7.05 0.12,9.79 -2.09,3.06 -5.47,5.46 -8.5,7.55 -8.04,5.26 -17.18,9.45 -25.91,13.38 0.85,-4.21 1.68,-8.41 2.62,-12.59 7.49,-3.59 14.79,-7.08 21.41,-12.18 -6.28,-0.63 -12.58,-0.7 -18.88,-0.36 0.7,-3.56 1.43,-7.11 2.16,-10.66 z"
     id="path3977"
     inkscape:connector-curvature="0"
     style="fill:#ffffff" />
</svg>
